<?xml version="1.0" encoding="utf-8"?>
<!DOCTYPE svg PUBLIC "-//W3C//DTD SVG 1.1//EN" "http://www.w3.org/Graphics/SVG/1.1/DTD/svg11.dtd">
<svg width="791" height="776px" viewBox="29, -1, 791, 776" xmlns="http://www.w3.org/2000/svg" xmlns:xlink="http://www.w3.org/1999/xlink" xmlns:xml="http://www.w3.org/XML/1998/namespace" version="1.1">
  <defs>
    <marker refX="5" refY="5" orient="auto" markerWidth="10" markerHeight="10" id="startMessageFlowda4293ac-1b2f-4cfa-b714-43f7ba5c28e3">
      <circle cx="5" cy="5" r="4" stroke-width="1px" style="fill:white;stroke:black;" />
    </marker>
    <marker refX="15" refY="6.5" orient="auto" markerWidth="16" markerHeight="14" id="endMessageFlowda4293ac-1b2f-4cfa-b714-43f7ba5c28e3">
      <path d="M0 1 L0 13 L15 6.5 z" stroke-width="1px" style="fill:white;stroke:black;" />
    </marker>
  </defs>
  <g class="djs-group">
    <g transform="matrix(1, 0, 0, 1, 47, 363)" id="gfx-eead1193-fecd-4ff6-ac00-200f2e2a0f97" display="block" class="djs-element djs-shape" data-element-id="eead1193-fecd-4ff6-ac00-200f2e2a0f97">
      <g class="djs-visual">
        <g>
          <rect x="0" y="0" width="757" height="266" opacity="0" fill-opacity="0" style="fill:transparent;" />
          <path d="M757 0 L0 0 L0 266 L757 266 z M50 0 L50 266" stroke-width="1px" shape-rendering="crispEdges" fill-opacity="0" class="" style="fill:transparent;stroke:black;" />
        </g>
      </g>
      <svg width="50" height="266" class="djs-svg-text">
        <text transform="matrix(-1.83697E-16, -1, 1, -1.83697E-16, 0, 266)" font-family="'Segoe UI'" font-size="13.2815px" font-style="normal" font-weight="bold" lineHeight="1.2" textDirection="270" textAlign="center" class="djs-label" style="fill:black;">
          <tspan x="72.93532" y="28.75">Economic Operator</tspan>
        </text>
      </svg>
    </g>
  </g>
  <g class="djs-group">
    <g transform="matrix(1, 0, 0, 1, 45, 15)" id="gfx-ffb2d358-6819-4943-be00-db9b5a2b4782" display="block" class="djs-element djs-shape" data-element-id="ffb2d358-6819-4943-be00-db9b5a2b4782">
      <g class="djs-visual">
        <g>
          <rect x="0" y="0" width="759" height="224" opacity="0" fill-opacity="0" style="fill:transparent;" />
          <path d="M759 0 L0 0 L0 224 L759 224 z M50 0 L50 224" stroke-width="1px" shape-rendering="crispEdges" fill-opacity="0" class="" style="fill:transparent;stroke:black;" />
        </g>
      </g>
      <svg width="50" height="224" class="djs-svg-text">
        <text transform="matrix(-1.83697E-16, -1, 1, -1.83697E-16, 0, 224)" font-family="'Segoe UI'" font-size="13.2815px" font-style="normal" font-weight="bold" lineHeight="1.2" textDirection="270" textAlign="center" class="djs-label" style="fill:black;">
          <tspan x="57.36272" y="28.75">Contracting Body</tspan>
        </text>
      </svg>
    </g>
  </g>
  <g class="djs-group">
    <g transform="matrix(1, 0, 0, 1, 260, 445)" id="gfx-c0ed8cee-6e70-4578-8be4-1c69662decac" display="block" class="djs-element djs-shape" data-element-id="c0ed8cee-6e70-4578-8be4-1c69662decac">
      <g class="djs-visual">
        <g>
          <rect x="0" y="0" width="90" height="78" rx="5" stroke-width="2.4px" class="" style="fill:#ECEFFF;stroke:#03689A;" />
          <g>
            <g transform="translate(37, 62)">
              <rect x="0" y="0" width="15" height="15" stroke-width="2px" style="fill:#ECEFFF;stroke:#03689A;" />
              <path d="M7.5 3 L7.5 12 M3 7.5 L12 7.5" stroke-width="3px" style="fill:#ECEFFF;stroke:#03689A;" />
            </g>
          </g>
        </g>
      </g>
    </g>
  </g>
  <g class="djs-group">
    <g transform="matrix(1, 0, 0, 1, 262, 450)" id="gfx-31f7041f-aa76-45ba-ba13-f59cc6dcabcb" display="block" class="djs-element djs-shape" data-element-id="31f7041f-aa76-45ba-ba13-f59cc6dcabcb">
      <g class="djs-visual">
        <rect x="0" y="0" width="87" height="59" fill-opacity="0" stroke-opacity="0" style="fill:#FFFFFF;stroke:transparent;" />
        <svg width="87" height="54" class="djs-svg-text">
          <text font-family="'Segoe UI'" font-size="10.6252px" font-style="normal" font-weight="normal" lineHeight="1.2" textDirection="0" textAlign="center" class="djs-label" style="fill:black;">
            <tspan x="25.45173" y="14.75">P011 -  </tspan>
            <tspan x="12.45937" y="27.75">Qualification </tspan>
            <tspan x="16.78411" y="40.75">Submission</tspan>
          </text>
        </svg>
      </g>
    </g>
  </g>
  <g class="djs-group">
    <g transform="matrix(1, 0, 0, 1, 494, 434)" id="gfx-c68ac644-a63e-41f5-92b7-75d676883d5c" display="block" class="djs-element djs-shape" data-element-id="c68ac644-a63e-41f5-92b7-75d676883d5c">
      <g class="djs-visual">
        <g>
          <rect x="0" y="0" width="90" height="100" rx="5" stroke-width="2.4px" class="" style="fill:#ECEFFF;stroke:#03689A;" />
          <g>
            <g transform="translate(37, 84)">
              <rect x="0" y="0" width="15" height="15" stroke-width="2px" style="fill:#ECEFFF;stroke:#03689A;" />
              <path d="M7.5 3 L7.5 12 M3 7.5 L12 7.5" stroke-width="3px" style="fill:#ECEFFF;stroke:#03689A;" />
            </g>
          </g>
        </g>
      </g>
    </g>
  </g>
  <g class="djs-group">
    <g transform="matrix(1, 0, 0, 1, 493, 446)" id="gfx-eb886d13-eeb9-4a2a-b135-5da3be661973" display="block" class="djs-element djs-shape" data-element-id="eb886d13-eeb9-4a2a-b135-5da3be661973">
      <g class="djs-visual">
        <rect x="0" y="0" width="92" height="73" fill-opacity="0" stroke-opacity="0" style="fill:#FFFFFF;stroke:transparent;" />
        <svg width="92" height="68" class="djs-svg-text">
          <text font-family="'Segoe UI'" font-size="10.6252px" font-style="normal" font-weight="normal" lineHeight="1.2" textDirection="0" textAlign="center" class="djs-label" style="fill:black;">
            <tspan x="14.95937" y="14.75">Qualification </tspan>
            <tspan x="17.99549" y="27.75">Withdrawal </tspan>
            <tspan x="9.099693" y="40.75">(P007 -  Tender </tspan>
            <tspan x="17.8477" y="53.75">Withdrawal)</tspan>
          </text>
        </svg>
      </g>
    </g>
  </g>
  <g class="djs-group">
    <g transform="matrix(1, 0, 0, 1, 258, 97)" id="gfx-8c90c7a0-b0ec-4033-a41d-f46837285069" display="block" class="djs-element djs-shape" data-element-id="8c90c7a0-b0ec-4033-a41d-f46837285069">
      <g class="djs-visual">
        <g>
          <rect x="0" y="0" width="90" height="78" rx="5" stroke-width="2.4px" class="" style="fill:#ECEFFF;stroke:#03689A;" />
          <g>
            <g transform="translate(37, 62)">
              <rect x="0" y="0" width="15" height="15" stroke-width="2px" style="fill:#ECEFFF;stroke:#03689A;" />
              <path d="M7.5 3 L7.5 12 M3 7.5 L12 7.5" stroke-width="3px" style="fill:#ECEFFF;stroke:#03689A;" />
            </g>
          </g>
        </g>
      </g>
    </g>
  </g>
  <g class="djs-group">
    <g transform="matrix(1, 0, 0, 1, 260, 102)" id="gfx-e78abb61-02ea-4f08-bd96-d61f323ef54f" display="block" class="djs-element djs-shape" data-element-id="e78abb61-02ea-4f08-bd96-d61f323ef54f">
      <g class="djs-visual">
        <rect x="0" y="0" width="86" height="58" fill-opacity="0" stroke-opacity="0" style="fill:#FFFFFF;stroke:transparent;" />
        <svg width="86" height="53" class="djs-svg-text">
          <text font-family="'Segoe UI'" font-size="10.6252px" font-style="normal" font-weight="normal" lineHeight="1.2" textDirection="0" textAlign="center" class="djs-label" style="fill:black;">
            <tspan x="26.40627" y="14.75">P011 - </tspan>
            <tspan x="11.95937" y="27.75">Qualification </tspan>
            <tspan x="16.28411" y="40.75">Submission</tspan>
          </text>
        </svg>
      </g>
    </g>
  </g>
  <g class="djs-group">
    <g transform="matrix(1, 0, 0, 1, 492, 92)" id="gfx-ca841391-2591-4799-8b28-d960d13c8da1" display="block" class="djs-element djs-shape" data-element-id="ca841391-2591-4799-8b28-d960d13c8da1">
      <g class="djs-visual">
        <g>
          <rect x="0" y="0" width="90" height="88" rx="5" stroke-width="2.4px" class="" style="fill:#ECEFFF;stroke:#03689A;" />
          <g>
            <g transform="translate(37, 72)">
              <rect x="0" y="0" width="15" height="15" stroke-width="2px" style="fill:#ECEFFF;stroke:#03689A;" />
              <path d="M7.5 3 L7.5 12 M3 7.5 L12 7.5" stroke-width="3px" style="fill:#ECEFFF;stroke:#03689A;" />
            </g>
          </g>
        </g>
      </g>
    </g>
  </g>
  <g class="djs-group">
    <g transform="matrix(1, 0, 0, 1, 496, 101)" id="gfx-1b007810-9da0-4375-91d5-b8a3793dbaee" display="block" class="djs-element djs-shape" data-element-id="1b007810-9da0-4375-91d5-b8a3793dbaee">
      <g class="djs-visual">
        <rect x="0" y="0" width="90" height="71" fill-opacity="0" stroke-opacity="0" style="fill:#FFFFFF;stroke:transparent;" />
        <svg width="90" height="66" class="djs-svg-text">
          <text font-family="'Segoe UI'" font-size="10.6252px" font-style="normal" font-weight="normal" lineHeight="1.2" textDirection="0" textAlign="center" class="djs-label" style="fill:black;">
            <tspan x="15.24538" y="14.75">Qualificaton </tspan>
            <tspan x="18.11816" y="27.75">withdrawal </tspan>
            <tspan x="8.099693" y="40.75">(P007 -  Tender </tspan>
            <tspan x="16.8477" y="53.75">Withdrawal)</tspan>
          </text>
        </svg>
      </g>
    </g>
  </g>
  <g class="djs-group">
    <g transform="matrix(1, 0, 0, 1, 148, 469)" id="gfx-ea86ae5c-9efc-48ec-aea2-4814044c9309" display="block" class="djs-element djs-shape" data-element-id="ea86ae5c-9efc-48ec-aea2-4814044c9309">
      <g class="djs-visual">
        <g>
          <g transform="translate(-8.90625, -8.90625) scale(1.5)">
            <path d="M16 25.2 C10.9 25.2 6.8 21.1 6.8 16 C6.8 10.9 10.9 6.8 16 6.8 C21.1 6.8 25.2 10.9 25.2 16 C25.2 21.1 21.1 25.2 16 25.2 L16 25.2 z" style="fill:#E6FF97;" />
            <path d="M15.9 7 C20.9 7 24.9 11 24.9 16 C24.9 21 20.9 25 15.9 25 C10.9 25 6.9 21 6.9 16 C6.9 11 10.9 7 15.9 7 M15.9 6 C10.4 6 5.9 10.5 5.9 16 C5.9 21.5 10.4 26 15.9 26 C21.4 26 25.9 21.5 25.9 16 C25.9 10.5 21.4 6 15.9 6 z" stroke-width="0.2px" class="" style="fill:#62A716;stroke:#62A716;" />
          </g>
        </g>
      </g>
    </g>
  </g>
  <g class="djs-group">
    <g transform="matrix(1, 0, 0, 1, 100, 507)" id="gfx-2feb81c3-df8e-4a18-a1b1-2a9479f46163" display="block" class="djs-element djs-shape" data-element-id="2feb81c3-df8e-4a18-a1b1-2a9479f46163">
      <g class="djs-visual">
        <rect x="0" y="0" width="125" height="53" fill-opacity="0" stroke-opacity="0" style="fill:#FFFFFF;stroke:transparent;" />
        <svg width="125" height="48" class="djs-svg-text">
          <text font-family="'Segoe UI'" font-size="10.6252px" font-style="normal" font-weight="normal" lineHeight="1.2" textDirection="0" textAlign="center" class="djs-label" style="fill:black;">
            <tspan x="10.2894" y="14.75">Qualification Prepared</tspan>
          </text>
        </svg>
      </g>
    </g>
  </g>
  <g class="djs-group">
    <g transform="matrix(1, 0, 0, 1, 126, 121)" id="gfx-00b86bf5-9194-43b8-aa80-f6a15fa12f68" display="block" class="djs-element djs-shape" data-element-id="00b86bf5-9194-43b8-aa80-f6a15fa12f68">
      <g class="djs-visual">
        <g>
          <g transform="translate(-8.90625, -8.90625) scale(1.5)">
            <path d="M16 25.2 C10.9 25.2 6.8 21.1 6.8 16 C6.8 10.9 10.9 6.8 16 6.8 C21.1 6.8 25.2 10.9 25.2 16 C25.2 21.1 21.1 25.2 16 25.2 L16 25.2 z" style="fill:#E6FF97;" />
            <path d="M15.9 7 C20.9 7 24.9 11 24.9 16 C24.9 21 20.9 25 15.9 25 C10.9 25 6.9 21 6.9 16 C6.9 11 10.9 7 15.9 7 M15.9 6 C10.4 6 5.9 10.5 5.9 16 C5.9 21.5 10.4 26 15.9 26 C21.4 26 25.9 21.5 25.9 16 C25.9 10.5 21.4 6 15.9 6 z" stroke-width="0.2px" class="" style="fill:#62A716;stroke:#62A716;" />
          </g>
        </g>
      </g>
    </g>
  </g>
  <g class="djs-group">
    <g transform="matrix(1, 0, 0, 1, 82, 159)" id="gfx-57abc4be-81de-4cc6-b67f-0f1bc9e4a3fb" display="block" class="djs-element djs-shape" data-element-id="57abc4be-81de-4cc6-b67f-0f1bc9e4a3fb">
      <g class="djs-visual">
        <rect x="0" y="0" width="117" height="53" fill-opacity="0" stroke-opacity="0" style="fill:#FFFFFF;stroke:transparent;" />
        <svg width="117" height="48" class="djs-svg-text">
          <text font-family="'Segoe UI'" font-size="10.6252px" font-style="normal" font-weight="normal" lineHeight="1.2" textDirection="0" textAlign="center" class="djs-label" style="fill:black;">
            <tspan x="13.32617" y="14.75">Call for Tender sent</tspan>
          </text>
        </svg>
      </g>
    </g>
  </g>
  <g class="djs-group">
    <g transform="matrix(1, 0, 0, 1, 689, 469)" id="gfx-54bab902-7300-4792-b98c-ea4ed10f6a24" display="block" class="djs-element djs-shape" data-element-id="54bab902-7300-4792-b98c-ea4ed10f6a24">
      <g class="djs-visual">
        <g>
          <g transform="translate(-8.90625, -8.90625) scale(1.5)">
            <path d="M16 25.2 A9.2 9.2 0 1 1 25.2 16 A9.2 9.2 0 0 1 16 25.2 z" style="fill:#EEAAAA;" />
            <path d="M16 7.5 A8.5 8.5 0 1 1 7.5 16 A8.5 8.5 0 0 1 16 7.5 M16 6 A10 10 0 1 0 26 16 A10 10 0 0 0 16 6 z" stroke-width="0.4px" class="" style="fill:#990000;stroke:#990000;" />
          </g>
        </g>
      </g>
    </g>
  </g>
  <g class="djs-group">
    <g transform="matrix(1, 0, 0, 1, 664, 510)" id="gfx-86bb52c8-3b00-4c34-991c-577347697717" display="block" class="djs-element djs-shape" data-element-id="86bb52c8-3b00-4c34-991c-577347697717">
      <g class="djs-visual">
        <rect x="0" y="0" width="78" height="53" fill-opacity="0" stroke-opacity="0" style="fill:#FFFFFF;stroke:transparent;" />
        <svg width="78" height="48" class="djs-svg-text">
          <text font-family="'Segoe UI'" font-size="10.6252px" font-style="normal" font-weight="normal" lineHeight="1.2" textDirection="0" textAlign="center" class="djs-label" style="fill:black;">
            <tspan x="7.959373" y="14.75">Qualification </tspan>
            <tspan x="29.16563" y="27.75">sent</tspan>
          </text>
        </svg>
      </g>
    </g>
  </g>
  <g class="djs-group">
    <g transform="matrix(1, 0, 0, 1, 685, 121)" id="gfx-c5bb140e-b35b-4b3e-9b13-9f1e1994d7ba" display="block" class="djs-element djs-shape" data-element-id="c5bb140e-b35b-4b3e-9b13-9f1e1994d7ba">
      <g class="djs-visual">
        <g>
          <g transform="translate(-8.90625, -8.90625) scale(1.5)">
            <path d="M16 25.2 A9.2 9.2 0 1 1 25.2 16 A9.2 9.2 0 0 1 16 25.2 z" style="fill:#EEAAAA;" />
            <path d="M16 7.5 A8.5 8.5 0 1 1 7.5 16 A8.5 8.5 0 0 1 16 7.5 M16 6 A10 10 0 1 0 26 16 A10 10 0 0 0 16 6 z" stroke-width="0.4px" class="" style="fill:#990000;stroke:#990000;" />
          </g>
        </g>
      </g>
    </g>
  </g>
  <g class="djs-group">
    <g transform="matrix(1, 0, 0, 1, 656, 157)" id="gfx-dcdfd83f-2d49-4508-b62a-5eb835b7125a" display="block" class="djs-element djs-shape" data-element-id="dcdfd83f-2d49-4508-b62a-5eb835b7125a">
      <g class="djs-visual">
        <rect x="0" y="0" width="95" height="53" fill-opacity="0" stroke-opacity="0" style="fill:#FFFFFF;stroke:transparent;" />
        <svg width="95" height="48" class="djs-svg-text">
          <text font-family="'Segoe UI'" font-size="10.6252px" font-style="normal" font-weight="normal" lineHeight="1.2" textDirection="0" textAlign="center" class="djs-label" style="fill:black;">
            <tspan x="16.45937" y="14.75">Qualification </tspan>
            <tspan x="26.73969" y="27.75">Received</tspan>
          </text>
        </svg>
      </g>
    </g>
  </g>
  <g class="djs-group">
    <g id="gfx-da4293ac-1b2f-4cfa-b714-43f7ba5c28e3" display="block" class="djs-element djs-connection" data-element-id="da4293ac-1b2f-4cfa-b714-43f7ba5c28e3">
      <g class="djs-visual">
        <g>
          <defs>
            <marker refX="5" refY="5" orient="auto" markerWidth="10" markerHeight="10" id="startMessageFlowda4293ac-1b2f-4cfa-b714-43f7ba5c28e3#1">
              <circle cx="5" cy="5" r="4" stroke-width="1px" style="fill:white;stroke:black;" />
            </marker>
            <marker refX="15" refY="6.5" orient="auto" markerWidth="16" markerHeight="14" id="endMessageFlowda4293ac-1b2f-4cfa-b714-43f7ba5c28e3#1">
              <path d="M0 1 L0 13 L15 6.5 z" stroke-width="1px" style="fill:white;stroke:black;" />
            </marker>
          </defs>
          <path d="M304 445 L304 310 L303 310 L303 175" marker-end="url(#endMessageFlowda4293ac-1b2f-4cfa-b714-43f7ba5c28e3)" marker-start="url(#startMessageFlowda4293ac-1b2f-4cfa-b714-43f7ba5c28e3)" stroke-width="1px" stroke-linecap="round" stroke-linejoin="round" stroke-dasharray="6 4" shape-rendering="crispEdges" fill-opacity="0" class="" style="fill:transparent;stroke:black;" />
        </g>
      </g>
    </g>
  </g>
  <g class="djs-group">
    <g transform="matrix(1, 0, 0, 1, 303, 286)" id="gfx-6d30a79c-f615-4725-bcf3-e3b05f5da86c" display="block" class="djs-element djs-shape" data-element-id="6d30a79c-f615-4725-bcf3-e3b05f5da86c">
      <g class="djs-visual">
        <rect x="0" y="0" width="90" height="37" fill-opacity="0" stroke-opacity="0" style="fill:#FFFFFF;stroke:transparent;" />
        <svg width="90" height="32" class="djs-svg-text">
          <text font-family="'Segoe UI'" font-size="10.6252px" font-style="normal" font-weight="normal" lineHeight="1.2" textDirection="0" textAlign="center" class="djs-label" style="fill:black;">
            <tspan x="28.59814" y="14.75">T019 - </tspan>
            <tspan x="15.41392" y="27.75">Qualification</tspan>
          </text>
        </svg>
      </g>
    </g>
  </g>
  <g class="djs-group">
    <g id="gfx-9efa2ec5-45d8-475e-a99e-8c0bad74d2b2" display="block" class="djs-element djs-connection" data-element-id="9efa2ec5-45d8-475e-a99e-8c0bad74d2b2">
      <g class="djs-visual">
        <g>
          <defs>
            <marker refX="5" refY="5" orient="auto" markerWidth="10" markerHeight="10" id="startMessageFlow9efa2ec5-45d8-475e-a99e-8c0bad74d2b2">
              <circle cx="5" cy="5" r="4" stroke-width="1px" style="fill:white;stroke:black;" />
            </marker>
            <marker refX="15" refY="6.5" orient="auto" markerWidth="16" markerHeight="14" id="endMessageFlow9efa2ec5-45d8-475e-a99e-8c0bad74d2b2">
              <path d="M0 1 L0 13 L15 6.5 z" stroke-width="1px" style="fill:white;stroke:black;" />
            </marker>
          </defs>
          <path d="M537 180 L537 307 L538 307 L538 434" marker-end="url(#endMessageFlow9efa2ec5-45d8-475e-a99e-8c0bad74d2b2)" marker-start="url(#startMessageFlow9efa2ec5-45d8-475e-a99e-8c0bad74d2b2)" stroke-width="1px" stroke-linecap="round" stroke-linejoin="round" stroke-dasharray="6 4" shape-rendering="crispEdges" fill-opacity="0" class="" style="fill:transparent;stroke:black;" />
        </g>
      </g>
    </g>
  </g>
  <g class="djs-group">
    <g transform="matrix(1, 0, 0, 1, 548, 261)" id="gfx-3af539c0-6859-408a-9129-6777c40fd280" display="block" class="djs-element djs-shape" data-element-id="3af539c0-6859-408a-9129-6777c40fd280">
      <g class="djs-visual">
        <rect x="0" y="0" width="76" height="65" fill-opacity="0" stroke-opacity="0" style="fill:#FFFFFF;stroke:transparent;" />
        <svg width="76" height="60" class="djs-svg-text">
          <text font-family="'Segoe UI'" font-size="10.6252px" font-style="normal" font-weight="normal" lineHeight="1.2" textDirection="0" textAlign="center" class="djs-label" style="fill:black;">
            <tspan x="21.59814" y="14.75">T020 - </tspan>
            <tspan x="8.413918" y="27.75">Qualification</tspan>
            <tspan x="13.19498" y="40.75">Reception </tspan>
            <tspan x="7.324936" y="53.75">Confirmation</tspan>
          </text>
        </svg>
      </g>
    </g>
  </g>
  <g class="djs-group">
    <g id="gfx-258b9978-58c7-407f-afd8-1caad4e5a3c7" display="block" class="djs-element djs-connection" data-element-id="258b9978-58c7-407f-afd8-1caad4e5a3c7">
      <g class="djs-visual">
        <g>
          <defs>
            <marker refX="9.8" refY="6" orient="auto" markerWidth="12" markerHeight="12" markerUnits="strokeWidth" id="arrowSecuenceFlow258b9978-58c7-407f-afd8-1caad4e5a3c7">
              <path d="M0 0 L2 6 L0 12 L10 6 z" style="fill:black;" />
            </marker>
          </defs>
          <path d="M350 484 L494 484" marker-end="url(#arrowSecuenceFlow258b9978-58c7-407f-afd8-1caad4e5a3c7)" stroke-width="1px" stroke-linejoin="round" shape-rendering="crispEdges" fill-opacity="0" class="" style="fill:transparent;stroke:black;" />
        </g>
      </g>
    </g>
  </g>
  <g class="djs-group">
    <g id="gfx-47af84fc-600a-4b26-b500-8e36ffcc7849" display="block" class="djs-element djs-connection" data-element-id="47af84fc-600a-4b26-b500-8e36ffcc7849">
      <g class="djs-visual">
        <g>
          <defs>
            <marker refX="9.8" refY="6" orient="auto" markerWidth="12" markerHeight="12" markerUnits="strokeWidth" id="arrowSecuenceFlow47af84fc-600a-4b26-b500-8e36ffcc7849">
              <path d="M0 0 L2 6 L0 12 L10 6 z" style="fill:black;" />
            </marker>
          </defs>
          <path d="M584 484 L689 484" marker-end="url(#arrowSecuenceFlow47af84fc-600a-4b26-b500-8e36ffcc7849)" stroke-width="1px" stroke-linejoin="round" shape-rendering="crispEdges" fill-opacity="0" class="" style="fill:transparent;stroke:black;" />
        </g>
      </g>
    </g>
  </g>
  <g class="djs-group">
    <g id="gfx-74976b7b-2611-4b0f-b02f-2d7c13a2679d" display="block" class="djs-element djs-connection" data-element-id="74976b7b-2611-4b0f-b02f-2d7c13a2679d">
      <g class="djs-visual">
        <g>
          <defs>
            <marker refX="9.8" refY="6" orient="auto" markerWidth="12" markerHeight="12" markerUnits="strokeWidth" id="arrowSecuenceFlow74976b7b-2611-4b0f-b02f-2d7c13a2679d">
              <path d="M0 0 L2 6 L0 12 L10 6 z" style="fill:black;" />
            </marker>
          </defs>
          <path d="M178 484 L260 484" marker-end="url(#arrowSecuenceFlow74976b7b-2611-4b0f-b02f-2d7c13a2679d)" stroke-width="1px" stroke-linejoin="round" shape-rendering="crispEdges" fill-opacity="0" class="" style="fill:transparent;stroke:black;" />
        </g>
      </g>
    </g>
  </g>
  <g class="djs-group">
    <g id="gfx-baa02a9d-0068-4923-8939-4f97e35e8b92" display="block" class="djs-element djs-connection" data-element-id="baa02a9d-0068-4923-8939-4f97e35e8b92">
      <g class="djs-visual">
        <g>
          <defs>
            <marker refX="9.8" refY="6" orient="auto" markerWidth="12" markerHeight="12" markerUnits="strokeWidth" id="arrowSecuenceFlowbaa02a9d-0068-4923-8939-4f97e35e8b92">
              <path d="M0 0 L2 6 L0 12 L10 6 z" style="fill:black;" />
            </marker>
          </defs>
          <path d="M156 136 L258 136" marker-end="url(#arrowSecuenceFlowbaa02a9d-0068-4923-8939-4f97e35e8b92)" stroke-width="1px" stroke-linejoin="round" shape-rendering="crispEdges" fill-opacity="0" class="" style="fill:transparent;stroke:black;" />
        </g>
      </g>
    </g>
  </g>
  <g class="djs-group">
    <g id="gfx-69ddf8cd-e8e3-451e-ae49-803c63dbd453" display="block" class="djs-element djs-connection" data-element-id="69ddf8cd-e8e3-451e-ae49-803c63dbd453">
      <g class="djs-visual">
        <g>
          <defs>
            <marker refX="9.8" refY="6" orient="auto" markerWidth="12" markerHeight="12" markerUnits="strokeWidth" id="arrowSecuenceFlow69ddf8cd-e8e3-451e-ae49-803c63dbd453">
              <path d="M0 0 L2 6 L0 12 L10 6 z" style="fill:black;" />
            </marker>
          </defs>
          <path d="M348 136 L492 136" marker-end="url(#arrowSecuenceFlow69ddf8cd-e8e3-451e-ae49-803c63dbd453)" stroke-width="1px" stroke-linejoin="round" shape-rendering="crispEdges" fill-opacity="0" class="" style="fill:transparent;stroke:black;" />
        </g>
      </g>
    </g>
  </g>
  <g class="djs-group">
    <g id="gfx-e5c47087-9ed8-4f3f-bbd9-da1f8b8c9f43" display="block" class="djs-element djs-connection" data-element-id="e5c47087-9ed8-4f3f-bbd9-da1f8b8c9f43">
      <g class="djs-visual">
        <g>
          <defs>
            <marker refX="9.8" refY="6" orient="auto" markerWidth="12" markerHeight="12" markerUnits="strokeWidth" id="arrowSecuenceFlowe5c47087-9ed8-4f3f-bbd9-da1f8b8c9f43">
              <path d="M0 0 L2 6 L0 12 L10 6 z" style="fill:black;" />
            </marker>
          </defs>
          <path d="M582 136 L685 136" marker-end="url(#arrowSecuenceFlowe5c47087-9ed8-4f3f-bbd9-da1f8b8c9f43)" stroke-width="1px" stroke-linejoin="round" shape-rendering="crispEdges" fill-opacity="0" class="" style="fill:transparent;stroke:black;" />
        </g>
      </g>
    </g>
  </g>
</svg>